<svg xmlns="http://www.w3.org/2000/svg" xmlns:xlink="http://www.w3.org/1999/xlink" width="500" zoomAndPan="magnify" viewBox="0 0 375 374.999991" height="500" preserveAspectRatio="xMidYMid meet" version="1.0"><defs><clipPath id="ad833580fe"><path d="M 57.417969 49.910156 L 310.917969 49.910156 L 310.917969 318.410156 L 57.417969 318.410156 Z M 57.417969 49.910156 " clip-rule="nonzero"/></clipPath><clipPath id="94dcdf48f5"><path d="M 182 49.910156 L 310.917969 49.910156 L 310.917969 318.410156 L 182 318.410156 Z M 182 49.910156 " clip-rule="nonzero"/></clipPath></defs><g clip-path="url(#ad833580fe)"><path fill="#e23237" d="M 57.738281 94.417969 L 182.488281 49.910156 L 310.59375 93.625 L 289.859375 258.917969 L 182.488281 318.457031 L 76.804688 259.703125 L 57.738281 94.421875 Z M 57.738281 94.417969 " fill-opacity="1" fill-rule="nonzero"/></g><g clip-path="url(#94dcdf48f5)"><path fill="#b52e31" d="M 310.59375 93.625 L 182.492188 49.910156 L 182.492188 318.449219 L 289.859375 259 L 310.59375 93.628906 Z M 310.59375 93.625 " fill-opacity="1" fill-rule="nonzero"/></g><path fill="#ffffff" d="M 182.6875 81.261719 L 104.953125 254.457031 L 133.988281 253.960938 L 149.597656 214.898438 L 219.328125 214.898438 L 236.421875 254.457031 L 264.179688 254.953125 L 182.6875 81.261719 L 182.6875 81.265625 Z M 182.886719 136.753906 L 209.15625 191.746094 L 159.773438 191.746094 Z M 182.886719 136.753906 " fill-opacity="1" fill-rule="nonzero"/></svg>