<svg xmlns="http://www.w3.org/2000/svg" xmlns:xlink="http://www.w3.org/1999/xlink" width="500" zoomAndPan="magnify" viewBox="0 0 375 374.999991" height="500" preserveAspectRatio="xMidYMid meet" version="1.0"><defs><g/><clipPath id="536af370ea"><path d="M 33.507812 200.605469 L 350.742188 200.605469 L 350.742188 237.679688 L 33.507812 237.679688 Z M 33.507812 200.605469 " clip-rule="nonzero"/></clipPath></defs><rect x="-37.5" width="450" fill="#ffffff" y="-37.499999" height="449.999989" fill-opacity="1"/><rect x="-37.5" width="450" fill="#ffffff" y="-37.499999" height="449.999989" fill-opacity="1"/><rect x="-37.5" width="450" fill="#f4f4f4" y="-37.499999" height="449.999989" fill-opacity="1"/><g fill="#3b3937" fill-opacity="1"><g transform="translate(176.410085, 273.355588)"><g><path d="M 56.359375 0 L 14.71875 -118.53125 C 13.382812 -122.164062 11.75 -124.648438 9.8125 -125.984375 C 7.875 -127.316406 5.332031 -127.984375 2.1875 -127.984375 L 0 -127.984375 L 0 -129.796875 L 52.71875 -129.796875 L 52.71875 -127.984375 L 46.546875 -127.984375 C 43.265625 -127.984375 40.742188 -127.5 38.984375 -126.53125 C 37.234375 -125.5625 36.359375 -123.804688 36.359375 -121.265625 C 36.359375 -119.078125 36.960938 -116.285156 38.171875 -112.890625 L 60.359375 -48.359375 C 64.597656 -36.234375 67.929688 -25.382812 70.359375 -15.8125 C 71.691406 -20.300781 73.207031 -25.269531 74.90625 -30.71875 C 76.601562 -36.175781 78.238281 -41.328125 79.8125 -46.171875 L 100.71875 -111.625 C 102.050781 -115.382812 102.71875 -118.351562 102.71875 -120.53125 C 102.71875 -123.320312 101.773438 -125.257812 99.890625 -126.34375 C 98.015625 -127.4375 95.015625 -127.984375 90.890625 -127.984375 L 79.8125 -127.984375 L 79.8125 -129.796875 L 123.796875 -129.796875 L 123.796875 -127.984375 L 117.625 -127.984375 C 114.101562 -127.984375 111.3125 -126.984375 109.25 -124.984375 C 107.195312 -122.984375 105.382812 -119.378906 103.8125 -114.171875 L 66.90625 0 Z M 56.359375 0 "/></g></g></g><g fill="#3b3937" fill-opacity="1"><g transform="translate(68.067429, 216.929235)"><g><path d="M 0.1875 0 L 0.1875 -1.8125 L 6 -1.8125 C 9.757812 -1.8125 12.726562 -2.84375 14.90625 -4.90625 C 17.082031 -6.96875 19.082031 -10.601562 20.90625 -15.8125 L 61.265625 -129.796875 L 72.90625 -129.796875 L 117.078125 -12.359375 C 118.648438 -8.359375 120.285156 -5.597656 121.984375 -4.078125 C 123.679688 -2.566406 125.925781 -1.8125 128.71875 -1.8125 L 130.53125 -1.8125 L 130.53125 0 L 77.8125 0 L 77.8125 -1.8125 L 83.625 -1.8125 C 87.75 -1.8125 90.71875 -2.328125 92.53125 -3.359375 C 94.351562 -4.390625 95.265625 -6.238281 95.265625 -8.90625 C 95.265625 -9.875 95.140625 -11.054688 94.890625 -12.453125 C 94.648438 -13.847656 94.226562 -15.394531 93.625 -17.09375 L 82.71875 -47.265625 L 34.171875 -47.265625 L 24 -18.71875 C 23.394531 -16.90625 22.910156 -15.300781 22.546875 -13.90625 C 22.179688 -12.507812 22 -11.207031 22 -10 C 22 -6.96875 23.238281 -4.84375 25.71875 -3.625 C 28.207031 -2.414062 32.238281 -1.8125 37.8125 -1.8125 L 44.359375 -1.8125 L 44.359375 0 Z M 34.71875 -49.078125 L 81.984375 -49.078125 L 69.265625 -83.984375 C 67.203125 -89.679688 65.203125 -95.410156 63.265625 -101.171875 C 61.328125 -106.929688 59.75 -112.234375 58.53125 -117.078125 C 56.84375 -111.984375 55.175781 -107.132812 53.53125 -102.53125 C 51.894531 -97.925781 50.050781 -92.65625 48 -86.71875 Z M 34.71875 -49.078125 "/></g></g></g><g fill="#3b3937" fill-opacity="1"><g transform="translate(71.136286, 248.606489)"><g><path d="M 2.308594 -1.269531 L 2.308594 -5.144531 L 1.777344 -5.144531 L 1.777344 -1.269531 C 1.777344 -0.945312 1.648438 -0.71875 1.40625 -0.582031 C 1.203125 -0.460938 0.953125 -0.421875 0.660156 -0.460938 C 0.386719 -0.492188 0.175781 -0.566406 0.0390625 -0.6875 L 0.0390625 -0.105469 C 0.0820312 -0.0585938 0.175781 -0.0234375 0.308594 0.015625 C 0.445312 0.0546875 0.597656 0.0742188 0.765625 0.0742188 C 1.171875 0.0898438 1.511719 0.0078125 1.785156 -0.179688 C 2.132812 -0.410156 2.308594 -0.773438 2.308594 -1.269531 Z M 2.308594 -1.269531 "/></g></g></g><g fill="#3b3937" fill-opacity="1"><g transform="translate(79.709863, 248.606489)"><g><path d="M 1.398438 -1.890625 L 2.339844 -4.261719 L 3.269531 -1.890625 Z M 4.59375 0 L 2.339844 -5.5 L 0.0742188 0 L 0.652344 0 L 1.203125 -1.398438 L 3.464844 -1.398438 L 4.019531 0 Z M 4.59375 0 "/></g></g></g><g fill="#3b3937" fill-opacity="1"><g transform="translate(90.190366, 248.606489)"><g><path d="M 2.414062 0.308594 L 4.746094 -5.144531 L 4.167969 -5.144531 L 2.414062 -1 L 0.652344 -5.144531 L 0.0742188 -5.144531 Z M 2.414062 0.308594 "/></g></g></g><g fill="#3b3937" fill-opacity="1"><g transform="translate(100.822216, 248.606489)"><g><path d="M 1.398438 -1.890625 L 2.339844 -4.261719 L 3.269531 -1.890625 Z M 4.59375 0 L 2.339844 -5.5 L 0.0742188 0 L 0.652344 0 L 1.203125 -1.398438 L 3.464844 -1.398438 L 4.019531 0 Z M 4.59375 0 "/></g></g></g><g fill="#3b3937" fill-opacity="1"><g transform="translate(111.30272, 248.606489)"><g/></g></g><g fill="#3b3937" fill-opacity="1"><g transform="translate(119.157413, 248.606489)"><g><path d="M 4.5625 -2.574219 C 4.5625 -2.945312 4.488281 -3.285156 4.351562 -3.601562 C 4.214844 -3.917969 4.027344 -4.191406 3.792969 -4.417969 C 3.550781 -4.644531 3.269531 -4.820312 2.953125 -4.949219 C 2.625 -5.078125 2.277344 -5.144531 1.914062 -5.144531 L 0.566406 -5.144531 L 0.566406 0 L 1.914062 0 C 2.277344 0 2.625 -0.0585938 2.953125 -0.1875 C 3.269531 -0.316406 3.550781 -0.5 3.792969 -0.726562 C 4.027344 -0.953125 4.214844 -1.21875 4.351562 -1.535156 C 4.488281 -1.855469 4.5625 -2.195312 4.5625 -2.574219 Z M 4.046875 -2.574219 C 4.046875 -1.984375 3.835938 -1.492188 3.429688 -1.105469 C 3.019531 -0.71875 2.519531 -0.53125 1.929688 -0.53125 L 1.097656 -0.53125 L 1.097656 -4.617188 L 1.929688 -4.617188 C 2.519531 -4.617188 3.019531 -4.417969 3.429688 -4.039062 C 3.835938 -3.648438 4.046875 -3.15625 4.046875 -2.574219 Z M 4.046875 -2.574219 "/></g></g></g><g fill="#3b3937" fill-opacity="1"><g transform="translate(129.872506, 248.606489)"><g><path d="M 3.625 0 L 3.625 -0.492188 L 1.097656 -0.492188 L 1.097656 -2.324219 L 3.550781 -2.324219 L 3.550781 -2.824219 L 1.097656 -2.824219 L 1.097656 -4.652344 L 3.625 -4.652344 L 3.625 -5.144531 L 0.566406 -5.144531 L 0.566406 0 Z M 3.625 0 "/></g></g></g><g fill="#3b3937" fill-opacity="1"><g transform="translate(139.876275, 248.606489)"><g><path d="M 2.414062 0.308594 L 4.746094 -5.144531 L 4.167969 -5.144531 L 2.414062 -1 L 0.652344 -5.144531 L 0.0742188 -5.144531 Z M 2.414062 0.308594 "/></g></g></g><g fill="#3b3937" fill-opacity="1"><g transform="translate(150.508128, 248.606489)"><g><path d="M 3.625 0 L 3.625 -0.492188 L 1.097656 -0.492188 L 1.097656 -2.324219 L 3.550781 -2.324219 L 3.550781 -2.824219 L 1.097656 -2.824219 L 1.097656 -4.652344 L 3.625 -4.652344 L 3.625 -5.144531 L 0.566406 -5.144531 L 0.566406 0 Z M 3.625 0 "/></g></g></g><g fill="#3b3937" fill-opacity="1"><g transform="translate(160.511898, 248.606489)"><g><path d="M 1.097656 -0.53125 L 1.097656 -5.144531 L 0.566406 -5.144531 L 0.566406 0 L 2.9375 0 L 2.9375 -0.53125 Z M 1.097656 -0.53125 "/></g></g></g><g fill="#3b3937" fill-opacity="1"><g transform="translate(169.410867, 248.606489)"><g><path d="M 5.101562 -2.589844 C 5.101562 -1.996094 4.886719 -1.5 4.480469 -1.089844 C 4.0625 -0.671875 3.5625 -0.46875 2.980469 -0.46875 C 2.398438 -0.46875 1.898438 -0.671875 1.492188 -1.089844 C 1.074219 -1.5 0.871094 -1.996094 0.871094 -2.589844 C 0.871094 -3.164062 1.074219 -3.664062 1.492188 -4.078125 C 1.898438 -4.488281 2.398438 -4.699219 2.980469 -4.699219 C 3.5625 -4.699219 4.0625 -4.488281 4.480469 -4.078125 C 4.886719 -3.664062 5.101562 -3.164062 5.101562 -2.589844 Z M 5.628906 -2.589844 C 5.628906 -2.953125 5.554688 -3.292969 5.417969 -3.617188 C 5.28125 -3.933594 5.09375 -4.214844 4.851562 -4.457031 C 4.609375 -4.691406 4.328125 -4.878906 4.011719 -5.015625 C 3.683594 -5.152344 3.34375 -5.230469 2.980469 -5.230469 C 2.617188 -5.230469 2.269531 -5.152344 1.953125 -5.015625 C 1.632812 -4.878906 1.355469 -4.691406 1.113281 -4.457031 C 0.871094 -4.214844 0.679688 -3.933594 0.542969 -3.617188 C 0.410156 -3.292969 0.339844 -2.953125 0.339844 -2.589844 C 0.339844 -2.226562 0.410156 -1.875 0.542969 -1.558594 C 0.679688 -1.234375 0.871094 -0.953125 1.113281 -0.710938 C 1.355469 -0.46875 1.632812 -0.28125 1.953125 -0.144531 C 2.269531 -0.0078125 2.617188 0.0585938 2.980469 0.0585938 C 3.34375 0.0585938 3.683594 -0.0078125 4.011719 -0.144531 C 4.328125 -0.28125 4.609375 -0.46875 4.851562 -0.710938 C 5.09375 -0.953125 5.28125 -1.234375 5.417969 -1.558594 C 5.554688 -1.875 5.628906 -2.226562 5.628906 -2.589844 Z M 5.628906 -2.589844 "/></g></g></g><g fill="#3b3937" fill-opacity="1"><g transform="translate(181.192926, 248.606489)"><g><path d="M 1.097656 -2.550781 L 1.097656 -4.636719 L 2.292969 -4.636719 C 2.601562 -4.636719 2.851562 -4.539062 3.042969 -4.351562 C 3.222656 -4.15625 3.320312 -3.914062 3.320312 -3.609375 C 3.320312 -3.300781 3.222656 -3.050781 3.027344 -2.84375 C 2.832031 -2.648438 2.589844 -2.550781 2.292969 -2.550781 Z M 3.851562 -3.59375 C 3.851562 -4.046875 3.683594 -4.417969 3.367188 -4.714844 C 3.050781 -5 2.671875 -5.144531 2.21875 -5.144531 L 0.566406 -5.144531 L 0.566406 0 L 1.097656 0 L 1.097656 -2.035156 L 2.21875 -2.035156 C 2.671875 -2.035156 3.058594 -2.179688 3.367188 -2.46875 C 3.683594 -2.769531 3.851562 -3.140625 3.851562 -3.59375 Z M 3.851562 -3.59375 "/></g></g></g><g fill="#3b3937" fill-opacity="1"><g transform="translate(191.007516, 248.606489)"><g><path d="M 3.625 0 L 3.625 -0.492188 L 1.097656 -0.492188 L 1.097656 -2.324219 L 3.550781 -2.324219 L 3.550781 -2.824219 L 1.097656 -2.824219 L 1.097656 -4.652344 L 3.625 -4.652344 L 3.625 -5.144531 L 0.566406 -5.144531 L 0.566406 0 Z M 3.625 0 "/></g></g></g><g fill="#3b3937" fill-opacity="1"><g transform="translate(201.011285, 248.606489)"><g><path d="M 1.097656 -2.542969 L 1.097656 -4.636719 L 2.292969 -4.636719 C 2.601562 -4.636719 2.851562 -4.539062 3.042969 -4.34375 C 3.222656 -4.148438 3.320312 -3.90625 3.320312 -3.601562 C 3.320312 -3.300781 3.222656 -3.050781 3.027344 -2.84375 C 2.832031 -2.640625 2.589844 -2.542969 2.292969 -2.542969 Z M 3.851562 -3.59375 C 3.851562 -4.035156 3.683594 -4.410156 3.367188 -4.707031 C 3.058594 -4.996094 2.671875 -5.144531 2.21875 -5.144531 L 0.566406 -5.144531 L 0.566406 0 L 1.097656 0 L 1.097656 -2.035156 L 1.710938 -2.035156 L 3.222656 0 L 3.933594 0 L 2.347656 -2.035156 C 2.746094 -2.058594 3.085938 -2.203125 3.367188 -2.46875 C 3.683594 -2.761719 3.851562 -3.140625 3.851562 -3.59375 Z M 3.851562 -3.59375 "/></g></g></g><g clip-path="url(#536af370ea)"><path fill="#f4f4f4" d="M 33.507812 200.605469 L 350.5 200.605469 L 350.5 237.519531 L 33.507812 237.519531 Z M 33.507812 200.605469 " fill-opacity="1" fill-rule="nonzero"/></g><g fill="#967f71" fill-opacity="1"><g transform="translate(56.722918, 227.124491)"><g><path d="M 20.238281 -4.734375 C 20.957031 -5.957031 21.425781 -5.660156 22.445312 -5.421875 C 23.667969 -4.953125 24.8125 -4.515625 25.847656 -4.136719 C 26.175781 -4.011719 26.398438 -3.746094 26.445312 -3.402344 C 26.710938 -1.472656 27.117188 -0.453125 27.746094 -0.25 C 27.855469 -0.203125 27.964844 -0.21875 28.058594 -0.265625 C 28.152344 -0.3125 28.230469 -0.40625 28.261719 -0.5 C 28.324219 -0.722656 28.214844 -0.957031 27.996094 -1.035156 C 27.730469 -1.128906 27.523438 -1.753906 27.367188 -2.710938 C 27.320312 -2.914062 27.398438 -3.121094 27.558594 -3.246094 C 27.699219 -3.371094 27.917969 -3.417969 28.105469 -3.355469 C 29.171875 -2.960938 30.300781 -2.726562 31.445312 -2.664062 C 31.539062 -2.664062 31.648438 -2.710938 31.726562 -2.789062 C 31.804688 -2.867188 31.835938 -2.976562 31.835938 -3.089844 C 31.835938 -3.199219 31.789062 -3.308594 31.710938 -3.371094 C 31.632812 -3.449219 31.523438 -3.496094 31.414062 -3.496094 C 30.144531 -3.589844 28.90625 -3.886719 27.714844 -4.359375 C 27.367188 -4.46875 27.117188 -4.78125 27.085938 -5.140625 C 26.835938 -8.417969 26.804688 -12.820312 26.789062 -15.28125 C 26.773438 -18.714844 26.742188 -20.046875 26.585938 -20.425781 C 26.523438 -20.597656 26.367188 -20.707031 26.191406 -20.691406 C 26.003906 -20.675781 25.863281 -20.550781 25.816406 -20.378906 C 24.890625 -17.039062 23.746094 -13.761719 22.382812 -10.582031 C 21.929688 -9.546875 21.492188 -8.605469 21.035156 -7.726562 C 20.832031 -7.320312 20.332031 -7.132812 19.90625 -7.289062 C 14.765625 -9.265625 8.886719 -11.378906 4.390625 -11.726562 C 2.648438 -11.851562 1.519531 -11.535156 1.035156 -10.800781 C 0.628906 -10.171875 0.707031 -9.34375 1.253906 -8.324219 C 2.976562 -5.171875 9.625 -0.15625 14.28125 -0.15625 C 16.472656 -0.15625 18.496094 -2.085938 20.238281 -4.734375 Z M 3.621094 -10.925781 C 3.839844 -10.925781 4.074219 -10.925781 4.328125 -10.910156 C 8.605469 -10.582031 14.234375 -8.589844 19.21875 -6.675781 C 19.46875 -6.582031 19.671875 -6.363281 19.75 -6.113281 C 19.84375 -5.847656 19.796875 -5.566406 19.65625 -5.328125 C 17.824219 -2.460938 16.003906 -0.988281 14.28125 -0.988281 C 10.265625 -0.988281 3.746094 -5.46875 1.976562 -8.714844 C 1.707031 -9.21875 1.441406 -9.90625 1.722656 -10.34375 C 1.960938 -10.722656 2.632812 -10.925781 3.621094 -10.925781 Z M 25.644531 -16.945312 C 25.753906 -17.273438 25.957031 -17.210938 25.957031 -16.851562 C 25.957031 -16.347656 25.957031 -15.816406 25.972656 -15.28125 C 25.988281 -11.425781 26.050781 -8.355469 26.191406 -6.019531 C 26.222656 -5.753906 26.097656 -5.519531 25.894531 -5.359375 C 25.691406 -5.203125 25.425781 -5.171875 25.191406 -5.265625 C 24.203125 -5.644531 23.136719 -6.050781 22.039062 -6.472656 L 21.425781 -6.707031 C 23.136719 -9.984375 24.546875 -13.417969 25.644531 -16.945312 Z M 25.644531 -16.945312 "/></g></g></g><g fill="#967f71" fill-opacity="1"><g transform="translate(89.375096, 227.124491)"><g><path d="M 13.871094 -3.964844 C 13.792969 -4.042969 13.683594 -4.089844 13.589844 -4.089844 C 13.480469 -4.089844 13.371094 -4.042969 13.292969 -3.964844 C 11.976562 -2.648438 9.28125 -1.300781 7.117188 -1.347656 C 6.253906 -1.316406 5.40625 -1.644531 4.796875 -2.273438 C 4.78125 -2.289062 4.75 -2.320312 4.734375 -2.351562 C 4.71875 -2.398438 4.71875 -2.445312 4.734375 -2.507812 C 5.046875 -3.054688 5.234375 -3.683594 5.25 -4.328125 C 5.25 -4.640625 5.0625 -4.921875 4.765625 -5.046875 C 4.359375 -5.265625 3.824219 -5.15625 3.558594 -4.765625 C 3.199219 -4.246094 3.324219 -3.277344 3.683594 -2.507812 C 3.699219 -2.445312 3.699219 -2.398438 3.683594 -2.335938 C 3.433594 -1.945312 3.136719 -1.597656 2.804688 -1.285156 C 2.476562 -0.988281 2.007812 -0.691406 1.644531 -0.894531 C 0.847656 -1.660156 0.832031 -3.558594 0.894531 -4.214844 C 0.910156 -4.4375 0.753906 -4.640625 0.53125 -4.65625 C 0.3125 -4.6875 0.109375 -4.53125 0.078125 -4.296875 C 0.078125 -4.183594 -0.1875 -1.441406 1.113281 -0.25 C 1.128906 -0.234375 1.160156 -0.21875 1.175781 -0.21875 C 1.394531 -0.078125 1.644531 0 1.898438 0 C 2.242188 0 2.570312 -0.109375 2.851562 -0.296875 C 3.292969 -0.59375 3.683594 -0.972656 4.011719 -1.394531 C 4.074219 -1.457031 4.167969 -1.503906 4.261719 -1.503906 C 4.359375 -1.503906 4.453125 -1.472656 4.515625 -1.394531 C 5.234375 -0.816406 6.160156 -0.5 7.101562 -0.515625 C 9.609375 -0.453125 12.445312 -1.960938 13.871094 -3.386719 C 13.949219 -3.464844 13.996094 -3.574219 13.996094 -3.683594 C 13.996094 -3.792969 13.949219 -3.886719 13.871094 -3.964844 Z M 4.277344 -3.511719 C 4.261719 -3.480469 4.214844 -3.480469 4.214844 -3.511719 C 4.136719 -3.761719 4.136719 -4.042969 4.230469 -4.296875 C 4.261719 -4.328125 4.296875 -4.359375 4.34375 -4.359375 C 4.375 -4.34375 4.40625 -4.328125 4.4375 -4.296875 C 4.4375 -4.011719 4.390625 -3.746094 4.277344 -3.511719 Z M 4.277344 -3.511719 "/></g></g></g><g fill="#967f71" fill-opacity="1"><g transform="translate(102.536248, 227.124491)"><g><path d="M 13.105469 -3.792969 C 12.949219 -3.964844 12.679688 -3.980469 12.507812 -3.824219 C 12.460938 -3.777344 7.804688 0.40625 4.921875 -1.488281 C 3.777344 -2.242188 3.496094 -4.058594 3.496094 -4.074219 C 3.480469 -4.261719 3.339844 -4.40625 3.152344 -4.4375 C 2.976562 -4.453125 2.789062 -4.359375 2.710938 -4.199219 C 1.976562 -2.570312 0.675781 -0.5 0.3125 -0.738281 C 0.28125 -0.738281 0.21875 -0.800781 0.171875 -0.910156 C -0.015625 -1.425781 0.046875 -1.992188 0.3125 -2.476562 C 0.910156 -3.699219 2.007812 -4.578125 3.324219 -4.90625 C 3.464844 -4.9375 3.574219 -5.046875 3.621094 -5.1875 C 3.667969 -5.328125 3.621094 -5.484375 3.527344 -5.597656 C 3.417969 -5.691406 3.277344 -5.738281 3.136719 -5.707031 C 1.566406 -5.328125 0.265625 -4.261719 -0.4375 -2.820312 C -0.816406 -2.117188 -0.863281 -1.269531 -0.5625 -0.53125 C -0.421875 -0.171875 -0.078125 0.078125 0.3125 0.078125 L 0.328125 0.078125 C 1.097656 0.0625 2.054688 -0.894531 2.710938 -1.929688 C 2.789062 -2.054688 2.929688 -2.117188 3.074219 -2.101562 C 3.214844 -2.101562 3.339844 -2.023438 3.402344 -1.898438 C 3.667969 -1.457031 4.027344 -1.082031 4.46875 -0.816406 C 7.882812 1.457031 12.851562 -3.023438 13.074219 -3.214844 C 13.152344 -3.292969 13.199219 -3.402344 13.199219 -3.496094 C 13.214844 -3.605469 13.167969 -3.714844 13.105469 -3.792969 Z M 13.105469 -3.792969 "/></g></g></g><g fill="#967f71" fill-opacity="1"><g transform="translate(115.196022, 227.124491)"><g><path d="M 13.699219 -3.902344 C 13.605469 -3.964844 13.511719 -4.011719 13.402344 -4.011719 C 13.292969 -3.996094 13.183594 -3.949219 13.121094 -3.871094 C 13.074219 -3.839844 9.625 -0.15625 6.628906 -1.363281 C 5.988281 -1.707031 5.46875 -2.226562 5.109375 -2.867188 C 4.984375 -3.074219 4.828125 -3.277344 4.640625 -3.464844 C 4.4375 -3.714844 4.121094 -3.855469 3.792969 -3.871094 C 2.992188 -3.933594 2.023438 -3.402344 0.863281 -2.304688 C 0.832031 -2.273438 0.785156 -2.257812 0.738281 -2.289062 C 0.691406 -2.304688 0.660156 -2.367188 0.675781 -2.414062 L 1.019531 -3.949219 C 1.082031 -4.167969 0.941406 -4.40625 0.722656 -4.453125 C 0.5 -4.5 0.28125 -4.359375 0.21875 -4.136719 L -0.5625 -0.707031 C -0.609375 -0.515625 -0.515625 -0.328125 -0.34375 -0.25 C -0.171875 -0.15625 0.03125 -0.203125 0.15625 -0.34375 C 2.257812 -2.804688 3.324219 -3.039062 3.699219 -3.054688 C 4.074219 -3.074219 4.3125 -2.585938 4.4375 -2.398438 C 4.875 -1.628906 5.535156 -1.003906 6.316406 -0.609375 C 9.828125 0.816406 13.558594 -3.152344 13.714844 -3.324219 C 13.871094 -3.480469 13.855469 -3.746094 13.699219 -3.902344 Z M 13.699219 -3.902344 "/></g></g></g><g fill="#967f71" fill-opacity="1"><g transform="translate(128.247492, 227.124491)"><g><path d="M 10.15625 -4.230469 C 9.984375 -4.390625 9.734375 -4.390625 9.578125 -4.214844 C 9.515625 -4.167969 4.4375 1.003906 1.066406 -1.457031 C 0.03125 -2.210938 1.035156 -4.167969 1.050781 -4.183594 C 1.144531 -4.390625 1.066406 -4.625 0.863281 -4.734375 C 0.660156 -4.828125 0.421875 -4.765625 0.3125 -4.5625 C 0.25 -4.46875 -1.019531 -1.976562 0.578125 -0.800781 C 1.316406 -0.25 2.226562 0.046875 3.152344 0.03125 C 6.535156 0.03125 9.96875 -3.464844 10.15625 -3.652344 C 10.234375 -3.730469 10.28125 -3.824219 10.28125 -3.933594 C 10.265625 -4.042969 10.234375 -4.152344 10.15625 -4.230469 Z M 0.140625 -5.46875 C 0.203125 -5.46875 0.265625 -5.484375 0.328125 -5.519531 C 0.707031 -5.707031 1.035156 -5.957031 1.332031 -6.253906 C 1.488281 -6.425781 1.472656 -6.675781 1.316406 -6.835938 C 1.144531 -6.992188 0.894531 -6.992188 0.738281 -6.820312 C 0.5 -6.582031 0.234375 -6.394531 -0.0625 -6.238281 C -0.21875 -6.160156 -0.3125 -5.957031 -0.265625 -5.785156 C -0.21875 -5.597656 -0.046875 -5.46875 0.140625 -5.46875 Z M 0.140625 -5.46875 "/></g></g></g><g fill="#967f71" fill-opacity="1"><g transform="translate(137.86767, 227.124491)"><g><path d="M 10.753906 -4.34375 C 10.675781 -4.421875 10.582031 -4.453125 10.472656 -4.453125 C 10.359375 -4.453125 10.25 -4.421875 10.171875 -4.34375 C 8.667969 -2.914062 6.820312 -1.914062 4.796875 -1.425781 C 4.71875 -1.394531 4.625 -1.425781 4.578125 -1.488281 C 4.53125 -1.566406 4.515625 -1.644531 4.5625 -1.722656 C 4.84375 -2.273438 4.78125 -2.929688 4.421875 -3.433594 C 4.199219 -3.730469 3.917969 -3.980469 3.589844 -4.167969 C 3.152344 -4.46875 2.664062 -4.8125 2.648438 -5.171875 C 2.664062 -5.375 2.742188 -5.566406 2.882812 -5.722656 L 3.730469 -6.519531 C 3.886719 -6.675781 3.902344 -6.929688 3.761719 -7.085938 C 3.621094 -7.257812 3.386719 -7.289062 3.199219 -7.148438 C 2.867188 -6.898438 2.554688 -6.613281 2.289062 -6.285156 L -0.125 -4.027344 C -0.234375 -3.933594 -0.28125 -3.777344 -0.25 -3.636719 C -0.21875 -3.480469 -0.109375 -3.371094 0.03125 -3.324219 C 0.171875 -3.292969 0.328125 -3.324219 0.4375 -3.433594 L 1.628906 -4.546875 C 1.691406 -4.609375 1.769531 -4.625 1.851562 -4.625 C 1.929688 -4.609375 1.992188 -4.5625 2.023438 -4.5 C 2.320312 -4.089844 2.695312 -3.746094 3.121094 -3.496094 C 3.355469 -3.355469 3.558594 -3.199219 3.730469 -2.992188 C 3.886719 -2.820312 3.964844 -2.585938 3.917969 -2.351562 C 3.871094 -2.117188 3.730469 -1.914062 3.527344 -1.800781 C 2.523438 -1.238281 1.253906 -1.503906 0.5625 -2.429688 C 0.453125 -2.601562 0.203125 -2.664062 0.015625 -2.539062 C -0.171875 -2.429688 -0.234375 -2.195312 -0.125 -1.992188 C 0.390625 -1.097656 1.316406 -0.515625 2.351562 -0.4375 C 2.617188 -0.390625 2.867188 -0.375 3.136719 -0.375 C 5.785156 -0.375 9.042969 -2.039062 10.753906 -3.761719 C 10.910156 -3.917969 10.910156 -4.183594 10.753906 -4.34375 Z M 10.753906 -4.34375 "/></g></g></g><g fill="#967f71" fill-opacity="1"><g transform="translate(147.989225, 227.124491)"><g><path d="M 12.367188 -3.746094 C 12.210938 -3.917969 11.960938 -3.933594 11.789062 -3.777344 C 11.757812 -3.761719 8.527344 -0.941406 6.160156 -1.316406 C 5.453125 -1.425781 4.84375 -1.851562 4.5 -2.476562 C 4.199219 -3.023438 3.652344 -3.371094 3.039062 -3.433594 C 2.273438 -3.480469 1.425781 -3.023438 0.53125 -2.085938 C 0.484375 -2.039062 0.40625 -2.023438 0.34375 -2.054688 C 0.28125 -2.085938 0.25 -2.148438 0.265625 -2.226562 C 0.3125 -2.523438 0.453125 -3.277344 0.515625 -3.558594 C 0.515625 -3.511719 0.628906 -3.730469 0.628906 -3.746094 C 1.960938 -5.566406 5.941406 -11.332031 4.390625 -13.183594 C 4.183594 -13.464844 3.808594 -13.589844 3.464844 -13.496094 C 3.152344 -13.402344 2.195312 -13.105469 0.722656 -7.867188 C 0.359375 -6.597656 0.03125 -5.234375 -0.234375 -3.949219 L -0.34375 -3.808594 C -0.453125 -3.667969 -0.453125 -3.480469 -0.359375 -3.324219 C -0.59375 -2.164062 -0.753906 -1.097656 -0.832031 -0.28125 C -0.847656 -0.09375 -0.738281 0.078125 -0.5625 0.140625 C -0.390625 0.203125 -0.1875 0.140625 -0.078125 -0.015625 C 1.519531 -2.335938 2.539062 -2.632812 2.992188 -2.617188 C 3.324219 -2.585938 3.621094 -2.382812 3.777344 -2.085938 C 4.246094 -1.238281 5.078125 -0.644531 6.050781 -0.5 C 8.777344 -0.078125 12.179688 -3.039062 12.335938 -3.167969 C 12.492188 -3.324219 12.507812 -3.574219 12.367188 -3.746094 Z M 3.699219 -12.710938 C 3.730469 -12.710938 3.746094 -12.664062 3.761719 -12.648438 C 4.515625 -11.804688 1.394531 -5.5 1.003906 -5.753906 C 0.628906 -5.988281 3.039062 -12.710938 3.699219 -12.710938 Z M 3.699219 -12.710938 "/></g></g></g><g fill="#967f71" fill-opacity="1"><g transform="translate(159.834259, 227.124491)"><g/></g></g><g fill="#967f71" fill-opacity="1"><g transform="translate(165.662769, 227.124491)"><g><path d="M 5.722656 0.0625 C 10.925781 -2.242188 14.109375 -9.421875 15.957031 -14.042969 C 15.972656 -14.125 16.050781 -14.15625 16.128906 -14.140625 C 16.207031 -14.125 16.253906 -14.042969 16.253906 -13.964844 C 15.691406 -9.21875 14.5625 -3.023438 14.28125 -1.535156 C 14.25 -1.363281 14.34375 -1.175781 14.515625 -1.097656 C 14.6875 -1.019531 14.890625 -1.066406 15 -1.207031 C 16.960938 -3.574219 20.472656 -9.296875 22.808594 -13.246094 C 22.855469 -13.308594 22.949219 -13.339844 23.011719 -13.308594 C 23.089844 -13.277344 23.121094 -13.199219 23.105469 -13.121094 C 21.191406 -6.144531 19.984375 -0.28125 22.273438 0.4375 C 22.492188 0.5 22.730469 0.375 22.792969 0.15625 C 22.855469 -0.0625 22.746094 -0.28125 22.523438 -0.359375 C 20.503906 -0.972656 23.402344 -11.175781 24.640625 -15.519531 C 24.8125 -16.175781 24.984375 -16.773438 25.144531 -17.320312 C 25.191406 -17.523438 25.078125 -17.726562 24.890625 -17.808594 C 24.6875 -17.886719 24.46875 -17.808594 24.375 -17.617188 C 23.839844 -16.585938 19.265625 -8.667969 16.066406 -4.027344 C 16.003906 -3.917969 15.863281 -3.886719 15.753906 -3.933594 C 15.644531 -3.980469 15.582031 -4.089844 15.597656 -4.214844 C 16.269531 -8.011719 17.289062 -14.296875 17.367188 -17.601562 C 17.382812 -17.792969 17.257812 -17.964844 17.070312 -18.011719 C 16.882812 -18.058594 16.695312 -17.964844 16.601562 -17.792969 C 16.363281 -17.335938 16.050781 -16.554688 15.660156 -15.550781 C 13.949219 -11.191406 10.753906 -3.054688 5.390625 -0.691406 C 3.824219 0 2.664062 -0.3125 2.085938 -0.832031 C 1.644531 -1.222656 1.488281 -1.832031 1.675781 -2.382812 C 2.054688 -3.496094 3.589844 -4.261719 5.769531 -4.453125 C 5.878906 -4.453125 5.972656 -4.5 6.050781 -4.59375 C 6.113281 -4.671875 6.160156 -4.78125 6.144531 -4.890625 C 6.128906 -5.109375 5.925781 -5.28125 5.707031 -5.265625 C 2.070312 -4.953125 1.128906 -3.339844 0.894531 -2.664062 C 0.59375 -1.785156 0.847656 -0.832031 1.535156 -0.21875 C 2.117188 0.28125 2.867188 0.5625 3.652344 0.53125 C 4.359375 0.515625 5.078125 0.359375 5.722656 0.0625 Z M 5.722656 0.0625 "/></g></g></g><g fill="#967f71" fill-opacity="1"><g transform="translate(189.822882, 227.124491)"><g><path d="M 13.105469 -3.792969 C 12.949219 -3.964844 12.679688 -3.980469 12.507812 -3.824219 C 12.460938 -3.777344 7.804688 0.40625 4.921875 -1.488281 C 3.777344 -2.242188 3.496094 -4.058594 3.496094 -4.074219 C 3.480469 -4.261719 3.339844 -4.40625 3.152344 -4.4375 C 2.976562 -4.453125 2.789062 -4.359375 2.710938 -4.199219 C 1.976562 -2.570312 0.675781 -0.5 0.3125 -0.738281 C 0.28125 -0.738281 0.21875 -0.800781 0.171875 -0.910156 C -0.015625 -1.425781 0.046875 -1.992188 0.3125 -2.476562 C 0.910156 -3.699219 2.007812 -4.578125 3.324219 -4.90625 C 3.464844 -4.9375 3.574219 -5.046875 3.621094 -5.1875 C 3.667969 -5.328125 3.621094 -5.484375 3.527344 -5.597656 C 3.417969 -5.691406 3.277344 -5.738281 3.136719 -5.707031 C 1.566406 -5.328125 0.265625 -4.261719 -0.4375 -2.820312 C -0.816406 -2.117188 -0.863281 -1.269531 -0.5625 -0.53125 C -0.421875 -0.171875 -0.078125 0.078125 0.3125 0.078125 L 0.328125 0.078125 C 1.097656 0.0625 2.054688 -0.894531 2.710938 -1.929688 C 2.789062 -2.054688 2.929688 -2.117188 3.074219 -2.101562 C 3.214844 -2.101562 3.339844 -2.023438 3.402344 -1.898438 C 3.667969 -1.457031 4.027344 -1.082031 4.46875 -0.816406 C 7.882812 1.457031 12.851562 -3.023438 13.074219 -3.214844 C 13.152344 -3.292969 13.199219 -3.402344 13.199219 -3.496094 C 13.214844 -3.605469 13.167969 -3.714844 13.105469 -3.792969 Z M 13.105469 -3.792969 "/></g></g></g><g fill="#967f71" fill-opacity="1"><g transform="translate(202.482656, 227.124491)"><g><path d="M 13.699219 -3.902344 C 13.605469 -3.964844 13.511719 -4.011719 13.402344 -4.011719 C 13.292969 -3.996094 13.183594 -3.949219 13.121094 -3.871094 C 13.074219 -3.839844 9.625 -0.15625 6.628906 -1.363281 C 5.988281 -1.707031 5.46875 -2.226562 5.109375 -2.867188 C 4.984375 -3.074219 4.828125 -3.277344 4.640625 -3.464844 C 4.4375 -3.714844 4.121094 -3.855469 3.792969 -3.871094 C 2.992188 -3.933594 2.023438 -3.402344 0.863281 -2.304688 C 0.832031 -2.273438 0.785156 -2.257812 0.738281 -2.289062 C 0.691406 -2.304688 0.660156 -2.367188 0.675781 -2.414062 L 1.019531 -3.949219 C 1.082031 -4.167969 0.941406 -4.40625 0.722656 -4.453125 C 0.5 -4.5 0.28125 -4.359375 0.21875 -4.136719 L -0.5625 -0.707031 C -0.609375 -0.515625 -0.515625 -0.328125 -0.34375 -0.25 C -0.171875 -0.15625 0.03125 -0.203125 0.15625 -0.34375 C 2.257812 -2.804688 3.324219 -3.039062 3.699219 -3.054688 C 4.074219 -3.074219 4.3125 -2.585938 4.4375 -2.398438 C 4.875 -1.628906 5.535156 -1.003906 6.316406 -0.609375 C 9.828125 0.816406 13.558594 -3.152344 13.714844 -3.324219 C 13.871094 -3.480469 13.855469 -3.746094 13.699219 -3.902344 Z M 13.699219 -3.902344 "/></g></g></g><g fill="#967f71" fill-opacity="1"><g transform="translate(215.534127, 227.124491)"><g><path d="M 10.15625 -4.230469 C 9.984375 -4.390625 9.734375 -4.390625 9.578125 -4.214844 C 9.515625 -4.167969 4.4375 1.003906 1.066406 -1.457031 C 0.03125 -2.210938 1.035156 -4.167969 1.050781 -4.183594 C 1.144531 -4.390625 1.066406 -4.625 0.863281 -4.734375 C 0.660156 -4.828125 0.421875 -4.765625 0.3125 -4.5625 C 0.25 -4.46875 -1.019531 -1.976562 0.578125 -0.800781 C 1.316406 -0.25 2.226562 0.046875 3.152344 0.03125 C 6.535156 0.03125 9.96875 -3.464844 10.15625 -3.652344 C 10.234375 -3.730469 10.28125 -3.824219 10.28125 -3.933594 C 10.265625 -4.042969 10.234375 -4.152344 10.15625 -4.230469 Z M 0.140625 -5.46875 C 0.203125 -5.46875 0.265625 -5.484375 0.328125 -5.519531 C 0.707031 -5.707031 1.035156 -5.957031 1.332031 -6.253906 C 1.488281 -6.425781 1.472656 -6.675781 1.316406 -6.835938 C 1.144531 -6.992188 0.894531 -6.992188 0.738281 -6.820312 C 0.5 -6.582031 0.234375 -6.394531 -0.0625 -6.238281 C -0.21875 -6.160156 -0.3125 -5.957031 -0.265625 -5.785156 C -0.21875 -5.597656 -0.046875 -5.46875 0.140625 -5.46875 Z M 0.140625 -5.46875 "/></g></g></g><g fill="#967f71" fill-opacity="1"><g transform="translate(225.154305, 227.124491)"><g/></g></g><g fill="#967f71" fill-opacity="1"><g transform="translate(230.982814, 227.124491)"><g><path d="M 21.097656 -14.828125 C 21.050781 -14.921875 20.957031 -14.984375 20.847656 -15.015625 C 20.738281 -15.03125 20.628906 -15.015625 20.535156 -14.96875 C 18.230469 -13.574219 15.503906 -14.59375 12.351562 -15.769531 C 8.714844 -17.148438 4.59375 -18.683594 -0.0625 -16.976562 C -3.183594 -15.832031 -3.792969 -13.480469 -3.308594 -11.664062 C -2.867188 -9.96875 -1.550781 -8.777344 -0.203125 -8.777344 C -0.09375 -8.777344 0.03125 -8.792969 0.140625 -8.808594 C 0.296875 -8.824219 0.421875 -8.917969 0.46875 -9.058594 C 0.53125 -9.203125 0.5 -9.359375 0.40625 -9.484375 C 0.3125 -9.59375 0.15625 -9.640625 0.015625 -9.609375 C -1.003906 -9.453125 -2.148438 -10.457031 -2.507812 -11.867188 C -2.695312 -12.570312 -3.054688 -15 0.21875 -16.207031 C 2.460938 -17.007812 4.875 -17.132812 7.164062 -16.570312 C 7.335938 -16.539062 7.476562 -16.425781 7.570312 -16.285156 C 7.648438 -16.144531 7.679688 -15.972656 7.632812 -15.816406 C 6.960938 -13.261719 4.890625 -5.675781 3.039062 -1.019531 C 2.960938 -0.800781 3.054688 -0.5625 3.277344 -0.484375 C 3.480469 -0.40625 3.714844 -0.5 3.808594 -0.722656 C 5.675781 -5.40625 7.742188 -13.011719 8.433594 -15.597656 C 8.464844 -15.753906 8.574219 -15.894531 8.714844 -15.972656 C 8.871094 -16.050781 9.042969 -16.066406 9.203125 -16.019531 C 10.1875 -15.707031 11.128906 -15.363281 12.054688 -15 C 15.265625 -13.808594 18.308594 -12.664062 20.957031 -14.265625 C 21.160156 -14.375 21.222656 -14.625 21.097656 -14.828125 Z M 21.097656 -14.828125 "/></g></g></g><g fill="#967f71" fill-opacity="1"><g transform="translate(238.566138, 227.124491)"><g><path d="M 13.511719 -4.121094 C 13.433594 -4.199219 13.339844 -4.246094 13.230469 -4.246094 C 13.121094 -4.246094 13.011719 -4.199219 12.933594 -4.121094 C 10.21875 -1.472656 5.40625 -0.910156 4.375 -1.519531 C 3.667969 -1.929688 3.746094 -2.414062 4.246094 -3.386719 C 4.484375 -3.855469 4.75 -4.40625 4.296875 -4.734375 C 3.871094 -5.046875 3.464844 -4.84375 3.105469 -4.65625 C 2.585938 -4.359375 2.007812 -4.199219 1.394531 -4.199219 C 1.253906 -4.199219 1.128906 -4.453125 1.160156 -4.546875 C 2.039062 -6.472656 1.644531 -6.835938 1.503906 -6.976562 C 1.269531 -7.210938 0.910156 -7.195312 0.46875 -6.929688 C -0.25 -6.410156 -0.5625 -5.484375 -0.3125 -4.625 C -0.25 -4.390625 -0.140625 -4.167969 0.015625 -3.980469 C 0 -3.808594 0.078125 -3.652344 0.234375 -3.574219 C 0.328125 -3.527344 0.4375 -3.527344 0.546875 -3.558594 C 0.816406 -3.433594 1.113281 -3.371094 1.410156 -3.371094 C 2.054688 -3.355469 2.679688 -3.496094 3.246094 -3.808594 C 3.464844 -3.917969 3.542969 -3.824219 3.511719 -3.761719 C 3.136719 -3.023438 2.460938 -1.675781 3.964844 -0.800781 C 4.5 -0.546875 5.09375 -0.4375 5.691406 -0.484375 C 7.882812 -0.484375 11.332031 -1.425781 13.496094 -3.542969 C 13.574219 -3.605469 13.621094 -3.714844 13.621094 -3.824219 C 13.636719 -3.933594 13.589844 -4.042969 13.511719 -4.121094 Z M 0.453125 -4.984375 C 0.359375 -5.4375 0.515625 -5.910156 0.878906 -6.207031 C 0.769531 -5.785156 0.628906 -5.375 0.453125 -4.96875 Z M 0.453125 -4.984375 "/></g></g></g><g fill="#967f71" fill-opacity="1"><g transform="translate(251.413916, 227.124491)"><g><path d="M 10.15625 -4.230469 C 9.984375 -4.390625 9.734375 -4.390625 9.578125 -4.214844 C 9.515625 -4.167969 4.4375 1.003906 1.066406 -1.457031 C 0.03125 -2.210938 1.035156 -4.167969 1.050781 -4.183594 C 1.144531 -4.390625 1.066406 -4.625 0.863281 -4.734375 C 0.660156 -4.828125 0.421875 -4.765625 0.3125 -4.5625 C 0.25 -4.46875 -1.019531 -1.976562 0.578125 -0.800781 C 1.316406 -0.25 2.226562 0.046875 3.152344 0.03125 C 6.535156 0.03125 9.96875 -3.464844 10.15625 -3.652344 C 10.234375 -3.730469 10.28125 -3.824219 10.28125 -3.933594 C 10.265625 -4.042969 10.234375 -4.152344 10.15625 -4.230469 Z M 0.140625 -5.46875 C 0.203125 -5.46875 0.265625 -5.484375 0.328125 -5.519531 C 0.707031 -5.707031 1.035156 -5.957031 1.332031 -6.253906 C 1.488281 -6.425781 1.472656 -6.675781 1.316406 -6.835938 C 1.144531 -6.992188 0.894531 -6.992188 0.738281 -6.820312 C 0.5 -6.582031 0.234375 -6.394531 -0.0625 -6.238281 C -0.21875 -6.160156 -0.3125 -5.957031 -0.265625 -5.785156 C -0.21875 -5.597656 -0.046875 -5.46875 0.140625 -5.46875 Z M 0.140625 -5.46875 "/></g></g></g><g fill="#967f71" fill-opacity="1"><g transform="translate(261.034093, 227.124491)"><g><path d="M 12.917969 -4.089844 C 12.851562 -4.167969 12.742188 -4.214844 12.632812 -4.214844 C 12.523438 -4.214844 12.414062 -4.183594 12.335938 -4.105469 C 10.171875 -2.054688 6.613281 -1.613281 4.058594 -1.457031 C 3.980469 -1.441406 3.933594 -1.566406 3.980469 -1.644531 C 4.183594 -1.914062 4.328125 -2.226562 4.390625 -2.554688 C 4.515625 -3.402344 4.011719 -4.214844 3.183594 -4.453125 C 2.445312 -4.75 1.644531 -4.296875 0.769531 -3.136719 C 0.707031 -3.054688 0.628906 -3.089844 0.644531 -3.183594 C 0.707031 -3.652344 0.769531 -4.105469 0.832031 -4.53125 C 0.863281 -4.6875 0.800781 -4.828125 0.691406 -4.921875 C 0.5625 -5.03125 0.40625 -5.046875 0.265625 -4.984375 C 0.125 -4.9375 0.03125 -4.796875 0.015625 -4.65625 C -0.15625 -3.402344 -0.359375 -2.101562 -0.578125 -0.847656 C -2.007812 2.023438 -3.558594 6.441406 -2.820312 7.132812 C -2.710938 7.242188 -2.554688 7.304688 -2.398438 7.304688 C -2.320312 7.304688 -2.257812 7.304688 -2.179688 7.273438 C -1.285156 6.960938 -0.421875 3.089844 0.21875 -0.628906 C 0.234375 -0.660156 0.234375 -0.675781 0.25 -0.691406 C 0.691406 -1.660156 1.300781 -2.554688 2.039062 -3.324219 C 2.273438 -3.542969 2.617188 -3.792969 2.882812 -3.683594 C 3.417969 -3.464844 3.652344 -3.136719 3.574219 -2.695312 C 3.371094 -1.976562 2.742188 -1.425781 1.992188 -1.316406 C 1.898438 -1.316406 1.800781 -1.300781 1.707031 -1.300781 C 1.488281 -1.269531 1.332031 -1.082031 1.332031 -0.863281 C 1.363281 -0.644531 1.535156 -0.484375 1.753906 -0.484375 C 1.867188 -0.484375 1.976562 -0.484375 2.085938 -0.5 C 2.382812 -0.53125 2.726562 -0.546875 3.121094 -0.5625 C 5.769531 -0.722656 10.21875 -0.957031 12.902344 -3.511719 C 12.996094 -3.574219 13.027344 -3.683594 13.042969 -3.792969 C 13.042969 -3.902344 12.996094 -4.011719 12.917969 -4.089844 Z M -2.179688 5.972656 C -1.976562 5.03125 -1.722656 4.105469 -1.394531 3.214844 C -1.582031 4.152344 -1.851562 5.0625 -2.179688 5.972656 Z M -2.179688 5.972656 "/></g></g></g><g fill="#967f71" fill-opacity="1"><g transform="translate(273.380505, 227.124491)"><g><path d="M 13.105469 -3.792969 C 12.949219 -3.964844 12.679688 -3.980469 12.507812 -3.824219 C 12.460938 -3.777344 7.804688 0.40625 4.921875 -1.488281 C 3.777344 -2.242188 3.496094 -4.058594 3.496094 -4.074219 C 3.480469 -4.261719 3.339844 -4.40625 3.152344 -4.4375 C 2.976562 -4.453125 2.789062 -4.359375 2.710938 -4.199219 C 1.976562 -2.570312 0.675781 -0.5 0.3125 -0.738281 C 0.28125 -0.738281 0.21875 -0.800781 0.171875 -0.910156 C -0.015625 -1.425781 0.046875 -1.992188 0.3125 -2.476562 C 0.910156 -3.699219 2.007812 -4.578125 3.324219 -4.90625 C 3.464844 -4.9375 3.574219 -5.046875 3.621094 -5.1875 C 3.667969 -5.328125 3.621094 -5.484375 3.527344 -5.597656 C 3.417969 -5.691406 3.277344 -5.738281 3.136719 -5.707031 C 1.566406 -5.328125 0.265625 -4.261719 -0.4375 -2.820312 C -0.816406 -2.117188 -0.863281 -1.269531 -0.5625 -0.53125 C -0.421875 -0.171875 -0.078125 0.078125 0.3125 0.078125 L 0.328125 0.078125 C 1.097656 0.0625 2.054688 -0.894531 2.710938 -1.929688 C 2.789062 -2.054688 2.929688 -2.117188 3.074219 -2.101562 C 3.214844 -2.101562 3.339844 -2.023438 3.402344 -1.898438 C 3.667969 -1.457031 4.027344 -1.082031 4.46875 -0.816406 C 7.882812 1.457031 12.851562 -3.023438 13.074219 -3.214844 C 13.152344 -3.292969 13.199219 -3.402344 13.199219 -3.496094 C 13.214844 -3.605469 13.167969 -3.714844 13.105469 -3.792969 Z M 13.105469 -3.792969 "/></g></g></g><g fill="#967f71" fill-opacity="1"><g transform="translate(286.040279, 227.124491)"><g><path d="M 10.753906 -4.261719 C 10.597656 -4.421875 10.328125 -4.421875 10.171875 -4.246094 C 10.140625 -4.214844 5.894531 0.0625 3.074219 -1.003906 C 1.816406 -1.488281 1.285156 -2.945312 1.082031 -4.390625 C 1.363281 -5.078125 1.832031 -6.222656 2.273438 -7.507812 C 2.320312 -7.664062 2.367188 -7.679688 2.554688 -7.695312 C 4.671875 -7.851562 6.773438 -7.929688 8.011719 -7.929688 C 8.246094 -7.929688 8.417969 -8.121094 8.417969 -8.339844 C 8.417969 -8.574219 8.246094 -8.746094 8.011719 -8.746094 C 6.820312 -8.746094 4.859375 -8.652344 2.851562 -8.542969 C 2.773438 -8.527344 2.632812 -8.574219 2.742188 -8.855469 C 3.496094 -11.003906 4.027344 -13.183594 3.699219 -13.839844 C 3.371094 -14.5 2.929688 -14.515625 2.710938 -14.46875 C 1.550781 -14.25 0.707031 -11.238281 0.328125 -8.777344 C 0.296875 -8.558594 0.1875 -8.371094 -0.015625 -8.355469 C -2.476562 -8.167969 -4.5 -8.027344 -4.53125 -8.027344 C -4.765625 -8.011719 -4.9375 -7.820312 -4.921875 -7.585938 C -4.921875 -7.367188 -4.734375 -7.179688 -4.5 -7.195312 L -4.46875 -7.195312 C -4.421875 -7.195312 -2.523438 -7.335938 -0.15625 -7.507812 C -0.078125 -7.523438 0 -7.507812 0.0625 -7.445312 C 0.125 -7.398438 0.171875 -7.320312 0.171875 -7.242188 C -0.0625 -3.511719 0.878906 -0.957031 2.773438 -0.234375 C 3.183594 -0.09375 3.605469 -0.015625 4.042969 -0.015625 C 7.148438 -0.015625 10.597656 -3.511719 10.769531 -3.667969 C 10.847656 -3.746094 10.878906 -3.855469 10.878906 -3.964844 C 10.878906 -4.074219 10.832031 -4.183594 10.753906 -4.261719 Z M 1.160156 -8.808594 C 1.519531 -11.191406 2.242188 -13.074219 2.664062 -13.558594 C 2.710938 -13.589844 2.773438 -13.605469 2.835938 -13.589844 C 2.882812 -13.574219 2.929688 -13.542969 2.960938 -13.480469 C 3.152344 -13.074219 2.617188 -11.082031 1.816406 -8.714844 C 1.785156 -8.574219 1.675781 -8.464844 1.519531 -8.449219 C 1.441406 -8.433594 1.363281 -8.433594 1.269531 -8.433594 C 1.113281 -8.433594 1.144531 -8.683594 1.160156 -8.792969 Z M 0.972656 -6.347656 C 0.816406 -6.347656 0.878906 -7.445312 1.019531 -7.601562 C 1.144531 -7.679688 1.300781 -7.695312 1.425781 -7.617188 C 1.566406 -7.492188 1.144531 -6.347656 0.972656 -6.347656 Z M 0.972656 -6.347656 "/></g></g></g><g fill="#967f71" fill-opacity="1"><g transform="translate(296.052142, 227.124491)"><g><path d="M 12.367188 -3.746094 C 12.210938 -3.917969 11.960938 -3.933594 11.789062 -3.777344 C 11.757812 -3.761719 8.527344 -0.941406 6.160156 -1.316406 C 5.453125 -1.425781 4.84375 -1.851562 4.5 -2.476562 C 4.199219 -3.023438 3.652344 -3.371094 3.039062 -3.433594 C 2.273438 -3.480469 1.425781 -3.023438 0.53125 -2.085938 C 0.484375 -2.039062 0.40625 -2.023438 0.34375 -2.054688 C 0.28125 -2.085938 0.25 -2.148438 0.265625 -2.226562 C 0.3125 -2.523438 0.453125 -3.277344 0.515625 -3.558594 C 0.515625 -3.511719 0.628906 -3.730469 0.628906 -3.746094 C 1.960938 -5.566406 5.941406 -11.332031 4.390625 -13.183594 C 4.183594 -13.464844 3.808594 -13.589844 3.464844 -13.496094 C 3.152344 -13.402344 2.195312 -13.105469 0.722656 -7.867188 C 0.359375 -6.597656 0.03125 -5.234375 -0.234375 -3.949219 L -0.34375 -3.808594 C -0.453125 -3.667969 -0.453125 -3.480469 -0.359375 -3.324219 C -0.59375 -2.164062 -0.753906 -1.097656 -0.832031 -0.28125 C -0.847656 -0.09375 -0.738281 0.078125 -0.5625 0.140625 C -0.390625 0.203125 -0.1875 0.140625 -0.078125 -0.015625 C 1.519531 -2.335938 2.539062 -2.632812 2.992188 -2.617188 C 3.324219 -2.585938 3.621094 -2.382812 3.777344 -2.085938 C 4.246094 -1.238281 5.078125 -0.644531 6.050781 -0.5 C 8.777344 -0.078125 12.179688 -3.039062 12.335938 -3.167969 C 12.492188 -3.324219 12.507812 -3.574219 12.367188 -3.746094 Z M 3.699219 -12.710938 C 3.730469 -12.710938 3.746094 -12.664062 3.761719 -12.648438 C 4.515625 -11.804688 1.394531 -5.5 1.003906 -5.753906 C 0.628906 -5.988281 3.039062 -12.710938 3.699219 -12.710938 Z M 3.699219 -12.710938 "/></g></g></g><g fill="#967f71" fill-opacity="1"><g transform="translate(307.897189, 227.124491)"><g><path d="M 10.15625 -4.230469 C 9.984375 -4.390625 9.734375 -4.390625 9.578125 -4.214844 C 9.515625 -4.167969 4.4375 1.003906 1.066406 -1.457031 C 0.03125 -2.210938 1.035156 -4.167969 1.050781 -4.183594 C 1.144531 -4.390625 1.066406 -4.625 0.863281 -4.734375 C 0.660156 -4.828125 0.421875 -4.765625 0.3125 -4.5625 C 0.25 -4.46875 -1.019531 -1.976562 0.578125 -0.800781 C 1.316406 -0.25 2.226562 0.046875 3.152344 0.03125 C 6.535156 0.03125 9.96875 -3.464844 10.15625 -3.652344 C 10.234375 -3.730469 10.28125 -3.824219 10.28125 -3.933594 C 10.265625 -4.042969 10.234375 -4.152344 10.15625 -4.230469 Z M 0.140625 -5.46875 C 0.203125 -5.46875 0.265625 -5.484375 0.328125 -5.519531 C 0.707031 -5.707031 1.035156 -5.957031 1.332031 -6.253906 C 1.488281 -6.425781 1.472656 -6.675781 1.316406 -6.835938 C 1.144531 -6.992188 0.894531 -6.992188 0.738281 -6.820312 C 0.5 -6.582031 0.234375 -6.394531 -0.0625 -6.238281 C -0.21875 -6.160156 -0.3125 -5.957031 -0.265625 -5.785156 C -0.21875 -5.597656 -0.046875 -5.46875 0.140625 -5.46875 Z M 0.140625 -5.46875 "/></g></g></g></svg>